@startuml
left to right direction

package project.data_all.model_import {

	interface AllImportFull {
		{classifier} download_file()
		{classifier} import_file()
		{classifier} full_update_dimension_tables()
		{classifier} full_update_fact_table()
		{classifier} full_update_star_schema()
	}

	interface AllImportIncrement {
		{classifier} download_file()
		{classifier} import_file()
		{classifier} update_dimension_tables()
		{classifier} update_fact_table()
		{classifier} update_star_schema()
	}

	interface AllImport {
	    datum_reported: Date
		location: String
		location_group: String
		{classifier} download_file()
		{classifier} import_file()
		{classifier} full_update_dimension_tables()
		{classifier} full_update_fact_table()
		{classifier} full_update_star_schema()
		{classifier} update_dimension_tables()
		{classifier} update_fact_table()
		{classifier} update_star_schema()
	}
}

package flask_covid19.data_vaccination.model_import {

	entity RkiVaccinationImport {
	    id: Integer
	    dosen_kumulativ: Integer
	    dosen_differenz_zum_vortag: Integer
	    dosen_biontech_kumulativ: Integer
	    dosen_moderna_kumulativ: Integer
	    personen_erst_kumulativ: Integer
	    personen_voll_kumulativ: Integer
	    impf_quote_erst: Float
	    impf_quote_voll: Float
	    indikation_alter_dosen: Integer
	    indikation_beruf_dosen: Integer
	    indikation_medizinisch_dosen: Integer
	    indikation_pflegeheim_dosen: Integer
	    indikation_alter_erst: Integer
	    indikation_beruf_erst: Integer
	    indikation_medizinisch_erst: Integer
	    indikation_pflegeheim_erst: Integer
	    indikation_alter_voll: Integer
	    indikation_beruf_voll: Integer
	    indikation_medizinisch_voll: Integer
	    indikation_pflegeheim_voll: Integer
	    date_reported: String
		{classifier} download_file()
		{classifier} import_file()
		{classifier} full_update_dimension_tables()
		{classifier} full_update_fact_table()
		{classifier} full_update_star_schema()
		{classifier} update_dimension_tables()
		{classifier} update_fact_table()
		{classifier} update_star_schema()
	}
}

AllImportFull <|-- AllImport
AllImportIncrement <|-- AllImport
AllImport <|-- RkiVaccinationImport
@enduml
