@startuml
left to right direction

package project.data_all.model_import {

	interface AllImportFull {
		{classifier} download_file()
		{classifier} import_file()
		{classifier} full_update_dimension_tables()
		{classifier} full_update_fact_table()
		{classifier} full_update_star_schema()
	}

	interface AllImportIncrement {
		{classifier} download_file()
		{classifier} import_file()
		{classifier} update_dimension_tables()
		{classifier} update_fact_table()
		{classifier} update_star_schema()
	}

	interface AllImport {
	    datum_reported: Date
		location: String
		location_group: String
		{classifier} download_file()
		{classifier} import_file()
		{classifier} full_update_dimension_tables()
		{classifier} full_update_fact_table()
		{classifier} full_update_star_schema()
		{classifier} update_dimension_tables()
		{classifier} update_fact_table()
		{classifier} update_star_schema()
	}
}

package flask_covid19.data_who.model_import {

	entity WhoImport {
	    id: Integer
	    date_reported: String
	    country_code: String
	    country: String
	    who_region: String
	    new_cases: String
	    cumulative_cases: String
	    new_deaths: String
	    cumulative_deaths: String
		{classifier} download_file()
		{classifier} import_file()
		{classifier} full_update_dimension_tables()
		{classifier} full_update_fact_table()
		{classifier} full_update_star_schema()
		{classifier} update_dimension_tables()
		{classifier} update_fact_table()
		{classifier} update_star_schema()
	}
}

AllImportFull <|-- AllImport
AllImportIncrement <|-- AllImport
AllImport <|-- WhoImport

@enduml
