@startuml
left to right direction
'https://plantuml.com/class-diagram

package data_all.framework.model {

    abstract class AllEntity {}
    abstract class AllFactTableTimeSeries {}
    abstract class AllFactTable {}
    abstract class AllDateReported {}
    abstract class AllImport {}
    abstract class AllLocation {}
    abstract class AllLocationGroup {}

    AllEntity <|- AllFactTableTimeSeries
    AllFactTableTimeSeries <|- AllFactTable
    AllEntity <|- AllDateReported
    AllEntity <|- AllImport
    AllEntity <|- AllLocation
    AllEntity <|- AllLocationGroup

    AllLocation "1" *--> "*" AllLocationGroup : region
    AllFactTable "1" *--> "*" AllLocation : country
    AllFactTable "1" *--> "*" AllDateReported : date_reported
}

@enduml
