@startuml
left to right direction


package flask_covid19.data_all.model {

	interface AllDateReported {
	    id: Integer
		date_reported:  String
	    year_week:  String
	    datum: Date
	    year: Integer
	    month: Integer
	    day_of_month: Integer
	    day_of_week: Integer
	    week_of_year: Integer
		get_name_for_weekday()
		{classifier} get_names_for_weekday()
		{classifier} get_datum_parts(my_date_rep: String)
		{classifier} get_datum(my_year: Integer, my_month: Integer, my_day: Integer)
		{classifier} get_datum_as_str(my_year: Integer, my_month: Integer, my_day: Integer)
		{classifier} my_year_week(my_iso_year: Integer, week_number: Integer)
		{classifier} create_new_object_factory(my_date_rep: String)
	}

	interface AllLocationGroup {
	    id: Integer
	    continent:  String
	    {classifier} remove_all()
	    {classifier} get_all_as_page(page: Integer)
	    {classifier} get_all()
	    {classifier} get_all_as_dict()
	    {classifier} get_by_id(other_id: Integer)
	    {classifier} find_by_id(other_id: Integer)
	}
	interface AllLocation {
	    id: Integer
    }
	interface AllData {
	    id: Integer
	}
}

package covid19.blueprints.owid.model {
	entity OwidDateReported {
	    id: Integer
	}
	entity OwidContinent {
	    id: Integer
	}
	entity OwidCountry {
	    id: Integer
	}
	entity OwidData {
	    id: Integer
	}
}

AllDateReported <|-- OwidDateReported
AllLocationGroup <|-- OwidContinent
AllLocation <|--  OwidCountry
AllData <|-- OwidData

OwidCountry "1" *--> "*" OwidContinent : region
OwidData "1" *--> "*" OwidCountry : country
OwidData "1" *--> "*" OwidDateReported : date_reported

@enduml
