@startuml
left to right direction


package covid19.blueprints.all.model_import {

	interface AllImportFull {
		{classifier} download_file()
		{classifier} import_file()
		{classifier} full_update_dimension_tables()
		{classifier} full_update_fact_table()
		{classifier} full_update_star_schema()
	}

	interface AllImportIncrement {
		{classifier} download_file()
		{classifier} import_file()
		{classifier} update_dimension_tables()
		{classifier} update_fact_table()
		{classifier} update_star_schema()
	}

	interface DataImport {
	    datum_reported: Date
		location: String
		location_group: String
		{classifier} download_file()
		{classifier} import_file()
		{classifier} full_update_dimension_tables()
		{classifier} full_update_fact_table()
		{classifier} full_update_star_schema()
		{classifier} update_dimension_tables()
		{classifier} update_fact_table()
		{classifier} update_star_schema()
	}
}

package covid19.blueprints.ecdc.model_import {

	entity EcdcImport {
	    id: Integer
		date_rep:  String
	    date_rep_day:  String
	    date_rep_month:  String
	    date_rep_year:  String
	    cases:  String
	    deaths:  String
	    pop_data_2019:  String
	    countries_and_territories:  String
	    geo_id:  String
	    country_territory_code:  String
	    continent_exp:  String
	    cumulative_number_for_14_days_of_covid19_cases_per_100000:  String
		{classifier} download_file()
		{classifier} import_file()
		{classifier} full_update_dimension_tables()
		{classifier} full_update_fact_table()
		{classifier} full_update_star_schema()
		{classifier} update_dimension_tables()
		{classifier} update_fact_table()
		{classifier} update_star_schema()
	}
}

AllImportFull <|-- DataImport
AllImportIncrement <|-- DataImport
DataImport <|-- EcdcImport



package covid19.blueprints.all.model {

	interface AllDateReported {
	    id: Integer
		date_reported:  String
	    year_week:  String
	    datum: Date
	    year: Integer
	    month: Integer
	    day_of_month: Integer
	    day_of_week: Integer
	    week_of_year: Integer
		get_name_for_weekday()
		{classifier} get_names_for_weekday()
		{classifier} get_datum_parts(my_date_rep: String)
		{classifier} get_datum(my_year: Integer, my_month: Integer, my_day: Integer)
		{classifier} get_datum_as_str(my_year: Integer, my_month: Integer, my_day: Integer)
		{classifier} my_year_week(my_iso_year: Integer, week_number: Integer)
		{classifier} create_new_object_factory(my_date_rep: String)
	}

	interface AllLocationGroup {
	    id: Integer
	    continent:  String
	    {classifier} remove_all()
	    {classifier} get_all_as_page(page: Integer)
	    {classifier} get_all()
	    {classifier} get_all_as_dict()
	    {classifier} get_by_id(other_id: Integer)
	    {classifier} find_by_id(other_id: Integer)
	}

	interface AllLocation {
	    id: Integer
    }

	interface AllData {
	    id: Integer
	}

}

package covid19.blueprints.ecdc.model {

	entity EcdcDateReported {
	    id: Integer
	    dateiname: String
	    parent_dir: String
	    title: String
	    path_relative: String
	    get_absolute_path()
	    get_relative_path()
	    {classifier} remove_all()
	    {classifier} get_all_as_page(page: Integer)
	    {classifier} get_all()
	    {classifier} get_all_as_dict()
	    {classifier} get_by_id(other_id: Integer)
	    {classifier} find_by_id(other_id: Integer)
	    {classifier} get_kurse_all()
	}

	entity EcdcContinent {
	    id: Integer
	    dateiname: String
	    parent_dir: String
	    get_absolute_path()
	    get_relative_path()
	    {classifier} remove_all()
	    {classifier} get_all_as_page(page: Integer)
	    {classifier} get_all()
	    {classifier} get_all_as_dict()
	    {classifier} get_by_id(other_id: Integer)
	    {classifier} find_by_id(other_id: Integer)
	    {classifier} get_workflow_for_id(workflow_id: Integer)
	}

	entity EcdcCountry {
	    id: Integer
	    dateiname: String
	    parent_dir: String
	    title: String
	    lektion_nr: Integer
	    verified: Boolean
	    get_absolute_path()
	    get_relative_path()
	    {classifier} remove_all()
	    {classifier} get_all_as_page(page: Integer)
	    {classifier} get_all()
	    {classifier} get_all_as_dict()
	    {classifier} get_by_id(other_id: Integer)
	    {classifier} find_by_id(other_id: Integer)
	    {classifier} get_lektionen_for_workflow(workflow: Workflow)
	    {classifier} get_lektion_for_id(lektion_id: Integer)
	    {classifier} get_folien_for_lektion_id(lektion_id: Integer)
	    {classifier} get_all_verified()
	}

	entity EcdcData {
	    id: Integer
	    dateiname: String
	    parent_dir: String
	    title: String
	    lektion_nr: Integer
	    foliensatz_nr_in_lektion: Integer
	    get_absolute_path()
	    get_relative_path()
	    {classifier} get_foliensaetze_for_lektion(lektion: Lektion)
	    {classifier} remove_all()
	    {classifier} get_all_as_page(page: Integer)
	    {classifier} get_all()
	    {classifier} get_all_as_dict()
	    {classifier} get_by_id(other_id: Integer)
	    {classifier} find_by_id(other_id: Integer)
	}
}

AllDateReported <|-- EcdcDateReported
AllLocationGroup <|-- EcdcContinent
AllLocation <|-- EcdcCountry

EcdcCountry "1" *--> "*" EcdcContinent: continent
EcdcData "1" *--> "*" EcdcCountry: country
EcdcData "1" *--> "*" EcdcDateReported: date_reported

@enduml
